<?xml version="1.0" encoding="utf-8"?>
<!-- Generator: Adobe Illustrator 23.0.1, SVG Export Plug-In . SVG Version: 6.00 Build 0)  -->
<svg version="1.1" id="Layer_1" xmlns="http://www.w3.org/2000/svg" xmlns:xlink="http://www.w3.org/1999/xlink" x="0px" y="0px"
	 viewBox="0 0 64 64" style="enable-background:new 0 0 64 64;" xml:space="preserve">
<style type="text/css">
	.st0{fill:#FFFFFF;}
</style>
<g>
	<path class="st0" d="M60,9.3H4c-2.1,0-4,1.9-4,4V40c0,2.1,1.9,4,4,4h25.3v5.3H18.7c-1.6,0-2.7,1.1-2.7,2.7s1.1,2.7,2.7,2.7h26.7
		c1.6,0,2.7-1.1,2.7-2.7s-1.1-2.7-2.7-2.7H34.7V44H60c2.1,0,4-1.9,4-4V13.3C64,11.2,62.1,9.3,60,9.3z M58.7,38.7H5.3v-24h53.3v24
		H58.7z"/>
	<path class="st0" d="M17.3,36c2.1,0,4-1.9,4-4c1.3-1.1,3.5-2.7,5.3-4.3C27.2,28,27.5,28,28,28c1.1,0,1.9-0.3,2.7-1.1l4.8,1.6
		c0.8,0.3,1.6,0.3,2.4-0.3l4.8-3.2c0.5,0.3,1.1,0.3,1.6,0.3c2.1,0,4-1.9,4-4s-2.1-4-4.3-4c-1.9,0-3.2,1.1-3.7,2.7l-4.5,2.9l-4.5-1.3
		c-0.9-1.1-2-1.6-3.3-1.6c-1.9,0-3.5,1.3-3.7,2.9c-2.1,1.6-5.1,4-6.4,5.1h-0.3c-2.4,0-4.3,1.9-4.3,4S15.2,36,17.3,36z"/>
</g>
</svg>
