<?xml version="1.0" encoding="utf-8"?>
<!-- Generator: Adobe Illustrator 23.0.1, SVG Export Plug-In . SVG Version: 6.00 Build 0)  -->
<svg version="1.1" id="Layer_1" xmlns="http://www.w3.org/2000/svg" xmlns:xlink="http://www.w3.org/1999/xlink" x="0px" y="0px"
	 viewBox="0 0 512 512" style="enable-background:new 0 0 512 512;" xml:space="preserve">
<style type="text/css">
	.st0{fill:#72C5FC;}
	.st1{fill:#2698D1;}
	.st2{fill:#FF674F;}
	.st3{fill:#D9260F;}
	.st4{fill:#B0AC9B;}
	.st5{fill:#181B1F;}
	.st6{fill:#4C4A40;}
	.st7{fill:#FFCF2C;}
</style>
<path class="st0" d="M365.4,228.6c0,0-44.4-73.8-120.2-73.8c-32.5,0-56.3,0-56.3,0h-29.7c-54.2,0-104.6,27.9-133.4,73.8l0,0H365.4z"
	/>
<path class="st1" d="M256,228.6h109.4c0,0-40.2-66.8-109.4-73.3V228.6z"/>
<path class="st2" d="M506.1,260.9c-8.1-16.4-23.9-28.5-42.9-31.2l-88.9-14.8c-13.1-18.9-58.3-75.1-129.2-75.1h-86
	c-29.1,0-58,7.5-83.5,21.6c-25.4,14.1-47,34.5-62.5,59.1l-7.4,11.1l0,0C2.1,237.4,0,244.3,0,251.7v73.9c0,8.3,6.7,15,15,15h482
	c8.3,0,15-6.7,15-15v-34.7l-13.5-13.4L506.1,260.9z M159.2,213.6H56.5c9.9-10.3,21.3-19.1,33.8-26c21.1-11.7,44.9-17.8,69-17.8h0
	L159.2,213.6L159.2,213.6z M189.2,213.6v-43.8h55.9c40.4,0,71.3,24.6,89.4,43.8H189.2z"/>
<path class="st3" d="M506.1,260.9c-8.1-16.4-23.9-28.5-42.9-31.2l-88.9-14.8c-12.5-17.9-53.7-69.4-118.3-74.7v30.1
	c35.1,3.9,62.2,25.7,78.6,43.2H256v127h241c8.3,0,15-6.7,15-15v-34.7l-13.5-13.4L506.1,260.9z"/>
<ellipse class="st4" cx="387.4" cy="323.3" rx="34.2" ry="33.9"/>
<path class="st5" d="M387.4,372.2c-27.1,0-49.2-21.9-49.2-48.9s22.1-48.9,49.2-48.9s49.2,21.9,49.2,48.9S414.6,372.2,387.4,372.2z
	 M387.4,304.4c-10.6,0-19.2,8.5-19.2,18.9s8.6,18.9,19.2,18.9s19.2-8.5,19.2-18.9S398.1,304.4,387.4,304.4z"/>
<ellipse class="st4" cx="99.1" cy="323.3" rx="34.2" ry="33.9"/>
<path class="st6" d="M99.1,372.2c-27.1,0-49.2-21.9-49.2-48.9s22.1-48.9,49.2-48.9c27.1,0,49.2,21.9,49.2,48.9
	C148.3,350.3,126.2,372.2,99.1,372.2z M99.1,304.4c-10.6,0-19.2,8.5-19.2,18.9s8.6,18.9,19.2,18.9c10.6,0,19.2-8.5,19.2-18.9
	C118.3,312.9,109.7,304.4,99.1,304.4z"/>
<path class="st7" d="M465.3,275.9c0,8.3,6.7,15,15,15H512v-5c0-8.9-2.1-17.4-5.9-25h-25.9C472,260.9,465.3,267.6,465.3,275.9z"/>
<path class="st6" d="M241,290.9h-22.8c-8.3,0-15-6.7-15-15s6.7-15,15-15H241c8.3,0,15,6.7,15,15S249.3,290.9,241,290.9z"/>
</svg>
